<?xml version="1.0" encoding="utf-8"?>
<svg xmlns="http://www.w3.org/2000/svg" width="2500" height="2500" viewBox="0 0 192.756 192.756" xmlns:bx="https://boxy-svg.com">
  <defs>
    <bx:export>
      <bx:file format="svg"/>
    </bx:export>
  </defs>
  <g fill-rule="evenodd" clip-rule="evenodd">
    <path d="M 61.742 102.236 C 64.133 94.571 69.689 93.516 73.628 93.516 L 89.451 93.516 C 86.075 104.487 82.7 115.528 79.254 126.499 L 54.288 126.499 C 56.889 118.131 59.14 110.676 61.742 102.236 L 61.742 102.236 Z M 99.016 77.13 L 114.276 77.13 C 120.958 77.13 122.364 75.231 124.194 69.323 C 126.022 63.486 127.78 57.719 129.608 51.811 L 168.077 51.811 C 165.054 61.587 162.1 71.292 159.075 80.997 L 122.786 80.997 C 118.145 96.188 113.432 111.308 108.792 126.498 L 83.896 126.498 C 88.958 110.043 94.022 93.586 99.016 77.13 Z" fill="#c82b30"/>
    <path d="M 45.918 151.255 C 39.096 151.255 8.574 133.11 19.686 97.173 C 29.391 65.667 62.797 51.812 89.169 51.812 L 103.093 51.812 L 96.975 71.645 C 94.865 78.959 88.887 78.959 80.87 78.959 C 68.211 78.959 39.095 87.328 31.57 111.731 C 26.647 127.836 33.891 138.104 47.605 145.839 C 47.043 147.598 46.481 149.427 45.918 151.255 L 45.918 151.255 Z" fill="#433a92"/>
  </g>
</svg>